<svg width="178" height="215" viewBox="0 0 178 215" fill="none" xmlns="http://www.w3.org/2000/svg">
<g clip-path="url(#clip0_2570_13154)">
<path fill-rule="evenodd" clip-rule="evenodd" d="M23.0626 29.7294C23.0626 18.6487 32.0453 9.66602 43.126 9.66602H134.206C145.287 9.66602 154.269 18.6487 154.269 29.7294V95.4585C154.649 95.4585 154.956 95.766 154.956 96.1452V128.157C154.956 128.536 154.649 128.844 154.269 128.844V265.226C154.269 276.307 145.287 285.29 134.206 285.29H43.126C32.0453 285.29 23.0626 276.307 23.0626 265.226V128.697C22.6887 128.691 22.3875 128.386 22.3875 128.01V108.697C22.3875 108.321 22.6887 108.016 23.0626 108.01V101.715C22.6883 101.709 22.3867 101.404 22.3867 101.028V81.4942C22.3867 81.1186 22.6883 80.8134 23.0626 80.8076V71.2552C22.6883 71.2494 22.3867 70.9442 22.3867 70.5686V61.5751C22.3867 61.1995 22.6883 60.8943 23.0626 60.8885V29.7294ZM43.126 13.4403C34.1298 13.4403 26.8369 20.7332 26.8369 29.7294V265.226C26.8369 274.222 34.1298 281.515 43.126 281.515H134.206C143.202 281.515 150.495 274.222 150.495 265.226V29.7294C150.495 20.7332 143.202 13.4403 134.206 13.4403H43.126Z" fill="black"/>
</g>
<defs>
<clipPath id="clip0_2570_13154">
<rect width="177.98" height="215" fill="white"/>
</clipPath>
</defs>
</svg>
