<svg width="70" height="24" viewBox="0 0 70 24" fill="none" xmlns="http://www.w3.org/2000/svg">
<rect x="51.8638" width="5.3027" height="24" fill="white"/>
<path d="M53.0156 5.2959H62.4629L58.2393 9.51465L61.9893 13.2598L70 5.25879L69.9541 5.21289V0H53.0156V5.2959Z" fill="white"/>
<ellipse cx="48.1515" cy="21.2908" rx="2.65135" ry="2.64817" fill="#00EA6D"/>
<path d="M21.6652 5.2959H7.65149L15.1505 12.4395L12.2413 15.3418H12.1652V15.3438H0.00012207V10.0479H5.06555L0.00012207 5.31348L0.0186768 5.2959H0.00012207V0H21.6652V5.2959Z" fill="white"/>
<path d="M44.4393 5.2959H30.4256L37.9246 12.4395L35.0154 15.3418H34.9393V15.3438H22.7742V10.0479H27.8397L22.7742 5.31348L22.7928 5.2959H22.7742V0H44.4393V5.2959Z" fill="white"/>
<path d="M5.30273 16.6455L5.30273 23.9393L3.73509e-05 23.9393L3.76701e-05 16.6455L5.30273 16.6455Z" fill="white"/>
<path d="M28.0768 16.6455L28.0768 23.9393L22.7741 23.9393L22.7741 16.6455L28.0768 16.6455Z" fill="white"/>
<path d="M50.8042 0L50.8042 17.5871L45.5121 17.5871L45.5121 -2.31048e-07L50.8042 0Z" fill="white"/>
</svg>
