<svg width="73" height="24" viewBox="0 0 73 24" fill="none" xmlns="http://www.w3.org/2000/svg">
<path d="M6.17676 24H0V17.8232H6.17676V24ZM19.7988 0V6.17676H6.20996V9.70605H14.1523V15.8828H0.0341797V0H19.7988Z" fill="white"/>
<path d="M28.4459 24H22.2692V17.8232H28.4459V24ZM42.068 0V6.17676H28.4791V9.70605H36.4215V15.8828H22.3033V0H42.068Z" fill="white"/>
<rect x="44.5385" y="17.8235" width="6.17647" height="6.17647" rx="3.08824" fill="#00EA6D"/>
<rect x="44.5384" width="6.17647" height="15.8824" fill="white"/>
<path d="M59.3622 24H53.1854V17.8232H59.3622V24ZM72.9637 0V6.17676L64.7303 14.415L60.3651 10.0459L64.2313 6.17676H59.3622V15.8828H53.1854V0H72.9637Z" fill="white"/>
</svg>
