<svg width="70" height="24" viewBox="0 0 70 24" fill="none" xmlns="http://www.w3.org/2000/svg">
<ellipse cx="46.4185" cy="21.1856" rx="2.7305" ry="2.8145" fill="#00EA6D"/>
<path d="M49.298 0L49.298 16.3241L43.837 16.3241L43.837 -2.38708e-07L49.298 0Z" fill="#0A0F13"/>
<rect x="51.2837" width="5.46099" height="16.3241" fill="#0A0F13"/>
<path d="M52.4736 5.64062H62.2227L57.8643 10.1328L61.7334 14.1211L70 5.60059L69.9521 5.55078V0H52.4736V5.64062Z" fill="#0A0F13"/>
<rect x="56.828" y="24" width="5.54436" height="5.54436" transform="rotate(-180 56.828 24)" fill="#0A0F13"/>
<path d="M41.7212 5.64062H29.7603L37.4966 13.2471L34.4956 16.3369H34.4165V16.3408H21.8628V10.7002H27.0903L21.8628 5.6582L21.8813 5.64062H21.8628V0H41.7212V5.64062Z" fill="#0A0F13"/>
<rect x="27.3883" y="24" width="5.54436" height="5.54436" transform="rotate(-180 27.3883 24)" fill="#0A0F13"/>
<path d="M19.8584 5.64062H7.89746L15.6338 13.2471L12.6328 16.3369H12.5537V16.3408H0V10.7002H5.22754L0 5.6582L0.0185547 5.64062H0V0H19.8584V5.64062Z" fill="#0A0F13"/>
<rect x="5.54431" y="24" width="5.54436" height="5.54436" transform="rotate(-180 5.54431 24)" fill="#0A0F13"/>
</svg>
