<svg width="21" height="21" viewBox="0 0 21 21" fill="none" xmlns="http://www.w3.org/2000/svg">
<g clip-path="url(#clip0_707_5805)">
<path d="M10.5001 11.333C11.8834 11.333 12.9917 10.2163 12.9917 8.83301L13.0001 3.83301C13.0001 2.44967 11.8834 1.33301 10.5001 1.33301C9.11675 1.33301 8.00008 2.44967 8.00008 3.83301V8.83301C8.00008 10.2163 9.11675 11.333 10.5001 11.333ZM15.7116 11.333H14.0835C13.2572 12.4224 11.9133 13.083 10.5001 13.083C8.20008 13.083 6.08341 11.333 6.08341 8.83301H4.66675C4.66675 11.6747 6.93341 14.0247 9.66675 14.433V17.1663H11.3334V14.433C13.2033 14.1537 14.8549 12.9656 15.7116 11.333Z" fill="#0A0F13"/>
<rect x="8" y="17.1665" width="5" height="1.66667" fill="#0A0F13"/>
<circle cx="15.2499" cy="9.68301" r="0.85" fill="#00EA6D"/>
</g>
<defs>
<clipPath id="clip0_707_5805">
<rect width="20" height="20" fill="white" transform="translate(0.5 0.5)"/>
</clipPath>
</defs>
</svg>
