<svg width="21" height="21" viewBox="0 0 21 21" fill="none" xmlns="http://www.w3.org/2000/svg">
<g clip-path="url(#clip0_1110_2092)">
<path d="M10.5 11.3335C11.8833 11.3335 12.9916 10.2168 12.9916 8.8335L13 3.8335C13 2.45016 11.8833 1.3335 10.5 1.3335C9.11663 1.3335 7.99996 2.45016 7.99996 3.8335V8.8335C7.99996 10.2168 9.11663 11.3335 10.5 11.3335ZM15.7115 11.3335H14.0834C13.2571 12.4228 11.9131 13.0835 10.5 13.0835C8.19996 13.0835 6.08329 11.3335 6.08329 8.8335H4.66663C4.66663 11.6752 6.93329 14.0252 9.66663 14.4335V17.1668H11.3333V14.4335C13.2032 14.1541 14.8547 12.9661 15.7115 11.3335Z" fill="white"/>
<rect x="8" y="17.167" width="5" height="1.66667" fill="white"/>
<circle cx="15.25" cy="9.6835" r="0.85" fill="#00EA6D"/>
</g>
<defs>
<clipPath id="clip0_1110_2092">
<rect width="20" height="20" fill="white" transform="translate(0.5 0.5)"/>
</clipPath>
</defs>
</svg>
