<svg width="60" height="60" viewBox="0 0 60 60" fill="none" xmlns="http://www.w3.org/2000/svg">
<rect width="60" height="60" rx="30" fill="black" fill-opacity="0.2"/>
<path d="M23.3123 45C22.2269 45 21.4035 44.6979 20.8421 44.0938C20.2807 43.4992 20 42.5977 20 41.3894V30.9891C20 29.7903 20.2807 28.8937 20.8421 28.2991C21.4035 27.7045 22.2269 27.4072 23.3123 27.4072H36.6877C37.7825 27.4072 38.6058 27.7045 39.1579 28.2991C39.7193 28.8937 40 29.7903 40 30.9891V41.3894C40 42.5977 39.7193 43.4992 39.1579 44.0938C38.6058 44.6979 37.7825 45 36.6877 45H23.3123ZM22.6526 28.6875V24.0699C22.6526 22.3246 22.9895 20.8525 23.6632 19.6538C24.3462 18.455 25.2444 17.5488 26.3579 16.935C27.4713 16.3117 28.683 16 29.993 16C31.3123 16 32.5287 16.3117 33.6421 16.935C34.7649 17.5488 35.6632 18.455 36.3368 19.6538C37.0199 20.8525 37.3614 22.3246 37.3614 24.0699V28.6875H34.4421V23.8398C34.4421 22.7849 34.2363 21.8882 33.8246 21.1498C33.4222 20.4114 32.8842 19.8504 32.2105 19.4668C31.5462 19.0832 30.807 18.8914 29.993 18.8914C29.1883 18.8914 28.4491 19.0832 27.7754 19.4668C27.1111 19.8504 26.5778 20.4114 26.1754 21.1498C25.7825 21.8882 25.586 22.7849 25.586 23.8398V28.6875H22.6526Z" fill="white"/>
</svg>
