<svg width="22" height="22" viewBox="0 0 22 22" fill="none" xmlns="http://www.w3.org/2000/svg">
<g clip-path="url(#clip0_2654_2510)">
<path d="M10.9385 12.0263C12.3954 12.0263 13.5627 10.8502 13.5627 9.39328L13.5715 4.12719C13.5715 2.67024 12.3954 1.49414 10.9385 1.49414C9.4815 1.49414 8.30541 2.67024 8.30541 4.12719V9.39328C8.30541 10.8502 9.4815 12.0263 10.9385 12.0263ZM16.4274 12.0263H14.7126C13.8423 13.1737 12.4268 13.8695 10.9385 13.8695C8.51605 13.8695 6.28674 12.0263 6.28674 9.39328H4.79468C4.79468 12.3862 7.18197 14.8612 10.0608 15.2913V18.1701H11.8161V15.2913C13.7856 14.9971 15.525 13.7458 16.4274 12.0263Z" fill="#0A0F13"/>
<rect x="8.30542" y="18.1689" width="5.26609" height="1.75536" fill="#0A0F13"/>
<circle cx="15.9411" cy="10.2878" r="0.895236" fill="#00EA6D"/>
</g>
<defs>
<clipPath id="clip0_2654_2510">
<rect width="21.0644" height="21.0644" fill="white" transform="translate(0.40625 0.616211)"/>
</clipPath>
</defs>
</svg>
