<svg width="130" height="130" viewBox="0 0 130 130" fill="none" xmlns="http://www.w3.org/2000/svg">
<g filter="url(#filter0_d_1102_8657)">
<rect x="20" y="20" width="90" height="90" rx="45" fill="white" shape-rendering="crispEdges"/>
<g clip-path="url(#clip0_1102_8657)">
<path d="M65 66.9895C68.3025 66.9895 70.9485 64.3236 70.9485 61.0211L70.9684 49.0843C70.9684 45.7817 68.3025 43.1158 65 43.1158C61.6975 43.1158 59.0316 45.7817 59.0316 49.0843V61.0211C59.0316 64.3236 61.6975 66.9895 65 66.9895ZM77.4419 66.9895H73.555C71.5823 69.5901 68.3738 71.1674 65 71.1674C59.5091 71.1674 54.4558 66.9895 54.4558 61.0211H51.0737C51.0737 67.8052 56.4851 73.4155 63.0105 74.3903V80.9158H66.9895V74.3903C71.4537 73.7234 75.3965 70.887 77.4419 66.9895Z" fill="#0A0F13"/>
<rect x="59.0317" y="80.9156" width="11.9368" height="3.97894" fill="#0A0F13"/>
<circle cx="76.3402" cy="63.0501" r="2.02926" fill="#00EA6D"/>
</g>
</g>
<defs>
<filter id="filter0_d_1102_8657" x="8.71429" y="8.71429" width="112.571" height="112.571" filterUnits="userSpaceOnUse" color-interpolation-filters="sRGB">
<feFlood flood-opacity="0" result="BackgroundImageFix"/>
<feColorMatrix in="SourceAlpha" type="matrix" values="0 0 0 0 0 0 0 0 0 0 0 0 0 0 0 0 0 0 127 0" result="hardAlpha"/>
<feOffset/>
<feGaussianBlur stdDeviation="5.64286"/>
<feComposite in2="hardAlpha" operator="out"/>
<feColorMatrix type="matrix" values="0 0 0 0 0 0 0 0 0 0 0 0 0 0 0 0 0 0 0.1 0"/>
<feBlend mode="normal" in2="BackgroundImageFix" result="effect1_dropShadow_1102_8657"/>
<feBlend mode="normal" in="SourceGraphic" in2="effect1_dropShadow_1102_8657" result="shape"/>
</filter>
<clipPath id="clip0_1102_8657">
<rect width="47.7473" height="47.7473" fill="white" transform="translate(41.1263 41.1263)"/>
</clipPath>
</defs>
</svg>
