<svg width="19" height="18" viewBox="0 0 19 18" fill="none" xmlns="http://www.w3.org/2000/svg">
<path d="M8.43325 8.1H10.2333V13.5H8.43325V8.1ZM9.33325 0C4.36525 0 0.333252 4.032 0.333252 9C0.333252 13.968 4.36525 18 9.33325 18C14.3013 18 18.3333 13.968 18.3333 9C18.3333 4.032 14.3013 0 9.33325 0ZM9.33325 16.2C5.36425 16.2 2.13325 12.969 2.13325 9C2.13325 5.031 5.36425 1.8 9.33325 1.8C13.3023 1.8 16.5333 5.031 16.5333 9C16.5333 12.969 13.3023 16.2 9.33325 16.2Z" fill="white"/>
<circle cx="9.33314" cy="5.56299" r="0.981818" fill="#00EA6D"/>
</svg>
