<svg width="60" height="60" viewBox="0 0 60 60" fill="none" xmlns="http://www.w3.org/2000/svg">
<g clip-path="url(#clip0_894_11671)">
<rect width="60" height="60" rx="30" fill="black" fill-opacity="0.2"/>
<path d="M18.3989 45C17.2852 45 16.4402 44.7032 15.8641 44.1095C15.288 43.5158 15 42.6109 15 41.3947V31.0099C15 29.8129 15.288 28.9176 15.8641 28.3239C16.4402 27.7302 17.2852 27.4334 18.3989 27.4334H32.1243C33.2477 27.4334 34.0927 27.7302 34.6591 28.3239C35.2352 28.9176 35.5233 29.8129 35.5233 31.0099V41.3947C35.5233 42.6109 35.2352 43.5158 34.6591 44.1095C34.0927 44.7032 33.2477 45 32.1243 45H18.3989ZM29.9064 28.6543V24.0579C29.9064 22.3152 30.252 20.8453 30.9434 19.6483C31.6347 18.4514 32.5516 17.5465 33.6942 16.9336C34.8464 16.3112 36.0994 16 37.4532 16C38.807 16 40.0552 16.3112 41.1978 16.9336C42.3404 17.5465 43.2573 18.4514 43.9486 19.6483C44.6495 20.8453 45 22.3152 45 24.0579V26.9881C45 27.5052 45 28.5968 45 28.5968C45 28.5968 43.915 28.5968 43.5022 28.5968C43.0893 28.5968 42.0043 28.5968 42.0043 28.5968C42.0043 28.5348 42.0043 27.486 42.0043 26.9881V23.8281C42.0043 22.7748 41.7931 21.8795 41.3706 21.1421C40.9578 20.4048 40.4057 19.8446 39.7144 19.4616C39.0326 19.0786 38.2789 18.8871 37.4532 18.8871C36.6179 18.8871 35.8593 19.0786 35.1776 19.4616C34.4959 19.8446 33.9438 20.4048 33.5214 21.1421C33.1085 21.8795 32.9021 22.7748 32.9021 23.8281V28.6543H29.9064Z" fill="white"/>
</g>
<defs>
<clipPath id="clip0_894_11671">
<rect width="60" height="60" rx="30" fill="white"/>
</clipPath>
</defs>
</svg>
